<svg width="156" height="184" viewBox="0 0 156 184" fill="none" xmlns="http://www.w3.org/2000/svg">
<path d="M102.792 17.1584L110.792 2.72507C110.894 2.54013 110.959 2.33684 110.983 2.12682C111.006 1.91679 110.989 1.70415 110.93 1.50102C110.872 1.29789 110.774 1.10826 110.642 0.94295C110.51 0.777641 110.347 0.639894 110.163 0.537572C109.978 0.435251 109.774 0.370359 109.564 0.346601C109.354 0.322844 109.142 0.340686 108.938 0.39911C108.735 0.457533 108.546 0.555394 108.38 0.687104C108.215 0.818814 108.077 0.981794 107.975 1.16674L99.8917 15.7501C92.9914 12.7242 85.5387 11.1619 78.0042 11.1619C70.4696 11.1619 63.0169 12.7242 56.1167 15.7501L48.0334 1.16674C47.8267 0.791016 47.4793 0.512771 47.0675 0.393217C46.6557 0.273663 46.2132 0.322591 45.8375 0.529239C45.4618 0.735887 45.1836 1.08333 45.064 1.49513C44.9444 1.90692 44.9934 2.34935 45.2 2.72507L53.2 17.1584C45.5906 20.9155 39.1616 26.6938 34.6169 33.8607C30.0722 41.0276 27.587 49.3067 27.4334 57.7917H128.575C128.42 49.305 125.932 41.0246 121.384 33.8576C116.837 26.6905 110.404 20.9132 102.792 17.1584ZM54.6667 39.2834C53.8307 39.2834 53.0135 39.0354 52.3185 38.5708C51.6236 38.1062 51.082 37.4458 50.7625 36.6733C50.443 35.9008 50.3598 35.0509 50.5235 34.2311C50.6872 33.4113 51.0904 32.6585 51.6821 32.0679C52.2738 31.4774 53.0274 31.0757 53.8476 30.9136C54.6677 30.7515 55.5174 30.8364 56.2893 31.1574C57.0612 31.4785 57.7205 32.0213 58.1837 32.7172C58.647 33.4131 58.8933 34.2308 58.8917 35.0667C58.8895 36.1858 58.4434 37.2583 57.6513 38.0489C56.8592 38.8394 55.7858 39.2834 54.6667 39.2834ZM101.35 39.2834C100.514 39.2834 99.6969 39.0354 99.0019 38.5708C98.3069 38.1062 97.7654 37.4458 97.4458 36.6733C97.1263 35.9008 97.0431 35.0509 97.2068 34.2311C97.3705 33.4113 97.7737 32.6585 98.3654 32.0679C98.9572 31.4774 99.7108 31.0757 100.531 30.9136C101.351 30.7515 102.201 30.8364 102.973 31.1574C103.745 31.4785 104.404 32.0213 104.867 32.7172C105.33 33.4131 105.577 34.2308 105.575 35.0667C105.573 36.1858 105.127 37.2583 104.335 38.0489C103.542 38.8394 102.469 39.2834 101.35 39.2834ZM27.4167 135.092C27.4145 136.701 27.7299 138.294 28.3449 139.781C28.9598 141.268 29.8622 142.618 31.0002 143.756C32.1383 144.893 33.4897 145.794 34.9769 146.408C36.464 147.022 38.0578 147.337 39.6667 147.333H47.775V172.333C47.775 175.34 48.9695 178.224 51.0957 180.35C53.2219 182.476 56.1056 183.671 59.1125 183.671C62.1194 183.671 65.0032 182.476 67.1293 180.35C69.2555 178.224 70.45 175.34 70.45 172.333V147.333H85.5667V172.333C85.5667 175.339 86.7607 178.222 88.8861 180.347C91.0116 182.473 93.8942 183.667 96.9 183.667C99.9058 183.667 102.788 182.473 104.914 180.347C107.039 178.222 108.233 175.339 108.233 172.333V147.333H116.35C117.957 147.334 119.548 147.019 121.033 146.404C122.518 145.79 123.867 144.889 125.003 143.753C126.139 142.617 127.04 141.268 127.654 139.783C128.269 138.298 128.584 136.707 128.583 135.1V61.7917H27.4167V135.092ZM11.8584 59.8417C10.3693 59.8417 8.89492 60.1352 7.51936 60.7052C6.14379 61.2753 4.89404 62.1109 3.84154 63.1641C2.78903 64.2174 1.9544 65.4678 1.38533 66.8438C0.81627 68.2197 0.523933 69.6944 0.525027 71.1834V118.425C0.525027 119.913 0.818172 121.387 1.38773 122.762C1.95728 124.137 2.79209 125.387 3.84448 126.439C4.89688 127.491 6.14626 128.326 7.52128 128.896C8.8963 129.465 10.37 129.758 11.8584 129.758C13.3467 129.758 14.8204 129.465 16.1954 128.896C17.5705 128.326 18.8198 127.491 19.8722 126.439C20.9246 125.387 21.7594 124.137 22.329 122.762C22.8985 121.387 23.1917 119.913 23.1917 118.425V71.1834C23.1917 69.6951 22.8985 68.2213 22.329 66.8463C21.7594 65.4713 20.9246 64.2219 19.8722 63.1695C18.8198 62.1171 17.5705 61.2823 16.1954 60.7128C14.8204 60.1432 13.3467 59.8501 11.8584 59.8501M144.125 59.8501C142.636 59.8501 141.162 60.1435 139.786 60.7136C138.41 61.2836 137.161 62.1192 136.108 63.1725C135.056 64.2258 134.221 65.4761 133.652 66.8521C133.083 68.2281 132.791 69.7027 132.792 71.1917V118.433C132.792 119.922 133.085 121.395 133.654 122.77C134.224 124.146 135.059 125.395 136.111 126.447C137.164 127.5 138.413 128.334 139.788 128.904C141.163 129.474 142.637 129.767 144.125 129.767C145.613 129.767 147.087 129.474 148.462 128.904C149.837 128.334 151.087 127.5 152.139 126.447C153.191 125.395 154.026 124.146 154.596 122.77C155.165 121.395 155.458 119.922 155.458 118.433V71.1834C155.458 68.1776 154.264 65.2949 152.139 63.1695C150.013 61.0441 147.131 59.8501 144.125 59.8501Z" fill="#fff"/>
</svg>
