<svg width="127" height="151" viewBox="0 0 127 151" fill="none" xmlns="http://www.w3.org/2000/svg">
<path d="M105.309 144C97.1423 151.917 88.2256 150.667 79.6423 146.917C70.559 143.083 62.2256 142.917 52.6423 146.917C40.6423 152.083 34.309 150.583 27.1423 144C-13.5243 102.083 -7.52435 38.25 38.6423 35.9167C49.8923 36.5 57.7256 42.0833 64.309 42.5833C74.1423 40.5833 83.559 34.8333 94.059 35.5833C106.642 36.5833 116.142 41.5833 122.392 50.5833C96.3923 66.1667 102.559 100.417 126.392 110C121.642 122.5 115.476 134.917 105.226 144.083L105.309 144ZM63.4756 35.4167C62.2256 16.8333 77.309 1.5 94.6423 0C97.059 21.5 75.1423 37.5 63.4756 35.4167Z" fill="#fff"/>
</svg>
