<svg width="200" height="200" viewBox="0 0 200 200" fill="none" xmlns="http://www.w3.org/2000/svg">
<path d="M34.4917 59.9749C34.3496 59.7304 34.1461 59.5272 33.9014 59.3854C33.6567 59.2437 33.3792 59.1682 33.0964 59.1665C32.8136 59.1648 32.5353 59.237 32.2889 59.3758C32.0426 59.5147 31.8367 59.7154 31.6917 59.9582C24.562 72.0966 20.8127 85.9226 20.8333 99.9999C20.8333 137.183 46.4667 168.383 81.0333 176.883C81.3759 176.961 81.7344 176.929 82.0577 176.792C82.3809 176.654 82.6524 176.418 82.8333 176.117L103.383 141.617L105.033 138.758C105.742 137.525 104.667 135.983 103.25 136.108C96.0993 136.753 88.9183 135.259 82.6175 131.817C76.3167 128.375 71.1798 123.14 67.8583 116.775L51.4417 88.3916L34.4917 59.9749Z" fill="#fff"/>
<path d="M79.7167 112.359L79.4667 111.875L78.85 110.817C76.9877 107.171 76.0992 103.106 76.2709 99.0162C76.4426 94.9261 77.6685 90.9499 79.8298 87.4732C81.9911 83.9965 85.0144 81.1376 88.6062 79.1737C92.1981 77.2098 96.2366 76.2076 100.33 76.2645C104.423 76.3214 108.432 77.4353 111.968 79.4982C115.504 81.5611 118.447 84.503 120.511 88.0383C122.575 91.5737 123.69 95.5825 123.748 99.6757C123.806 103.769 122.805 107.808 120.842 111.4L120.533 111.875L119.95 112.875C117.772 116.261 114.769 119.037 111.223 120.943C107.677 122.848 103.705 123.82 99.6795 123.768C95.6543 123.715 91.7085 122.64 88.2134 120.643C84.7183 118.645 81.7886 115.792 79.7 112.35" fill="#fff"/>
<path d="M130.625 119.409L114.142 147.975L97.0501 176.684C96.9001 176.926 96.817 177.204 96.809 177.489C96.8011 177.774 96.8686 178.056 97.0049 178.306C97.1411 178.557 97.3411 178.767 97.5847 178.915C97.8283 179.063 98.1067 179.144 98.3918 179.15L100 179.167C120.996 179.167 141.133 170.826 155.979 155.98C170.826 141.133 179.167 120.997 179.167 100C179.174 92.3542 178.074 84.7474 175.9 77.4169C175.794 77.0796 175.583 76.7849 175.299 76.5751C175.014 76.3654 174.67 76.2516 174.317 76.2502H131.042C129.608 76.2502 128.817 77.9586 129.642 79.1252C133.808 85.0252 136.25 92.2252 136.25 100C136.262 106.873 134.31 113.607 130.625 119.409ZM100 63.7502H167.667C168.917 63.7502 169.708 62.4336 169.1 61.3336C162.224 49.0485 152.196 38.8193 140.05 31.7003C127.904 24.5814 114.079 20.8303 100 20.8336C89.134 20.8183 78.3819 23.0473 68.4173 27.3807C58.4527 31.7141 49.4903 38.0587 42.0918 46.0169C41.8529 46.2805 41.7047 46.6135 41.6687 46.9674C41.6327 47.3212 41.7109 47.6773 41.8918 47.9836L62.2501 82.1002L63.9168 84.9752C64.6251 86.2086 66.5001 86.0502 67.1001 84.7502C70.0095 78.4762 74.653 73.1653 80.4825 69.4443C86.312 65.7233 93.0843 63.7476 100 63.7502Z" fill="#fff"/>
</svg>
