<svg width="200" height="200" viewBox="0 0 200 200" fill="none" xmlns="http://www.w3.org/2000/svg">
<path d="M121.833 69.5832C118.333 71.9165 107.25 78.2498 105.583 79.4998C102.333 82.0832 99.3332 81.9165 96.0832 79.4165C94.4166 78.0832 83.3332 71.7498 79.8332 69.4998C75.8332 66.9165 76.0832 63.6665 80.4999 61.8332C94.1666 56.0832 107.833 56.4998 121.417 62.0832C125.5 63.8332 125.667 67.0832 121.833 69.5832ZM182 130.25C174.25 112.833 163.667 96.9998 150 83.0832C145.771 78.6968 142.731 73.3048 141.167 67.4165C140.333 64.6665 139.75 61.8332 139.167 58.9998C137.5 51.6665 136.75 44.1665 133.333 37.2498C127.25 24.0832 116.667 17.2498 101.333 16.6665C86.2499 17.0832 74.9999 23.4165 68.4166 36.6665C66.6666 40.2498 65.4166 43.9998 64.5832 47.8332C63.1666 54.1665 61.9166 60.7498 60.4166 67.1665C59.1666 72.5832 56.6666 77.2498 52.4166 81.4165C38.9999 94.4998 28.2499 109.5 20.0832 126C18.9166 128.416 17.7499 130.833 16.9999 133.333C15.4166 138.833 19.4166 142.666 25.2499 141.333C28.9166 140.583 32.5832 139.833 36.0832 138.75C39.4999 137.5 40.8332 138.333 41.6666 141.666C47.0832 159.583 58.9166 172.166 76.9999 179.166C111.333 192.166 151.417 173.666 160.083 141C160.667 138.75 161.5 137.916 164 138.75C167.833 139.916 171.75 140.75 175.667 141.666C179.75 142.416 182.75 140.333 183.333 136.333C183.583 134.167 182.833 132.25 182 130.25Z" fill="#fff"/>
</svg>
