<svg width="200" height="200" viewBox="0 0 200 200" fill="none" xmlns="http://www.w3.org/2000/svg">
<g clip-path="url(#clip0_2019_10087)">
<path d="M175 108.333V170.283C175 171.962 174.662 173.623 174.006 175.169C173.349 176.714 172.389 178.111 171.181 179.277C169.973 180.442 168.543 181.353 166.976 181.954C165.408 182.555 163.736 182.834 162.058 182.775L160.95 182.683L100 175.067V108.333H175ZM83.3333 108.333V172.983L39.6 167.517C35.5684 167.013 31.8596 165.054 29.171 162.008C26.4824 158.961 24.9991 155.038 25 150.975V108.333H83.3333ZM160.95 17.3166C162.616 17.1085 164.306 17.2381 165.921 17.6975C167.535 18.1569 169.04 18.9367 170.347 19.9905C171.654 21.0443 172.735 22.3505 173.525 23.8311C174.316 25.3117 174.801 26.9364 174.95 28.6083L175 29.7166V91.6666H100V24.9333L160.95 17.3166ZM83.3333 27.0166V91.6666H25V49.025C24.9991 44.962 26.4824 41.0386 29.171 37.9924C31.8596 34.9463 35.5684 32.9871 39.6 32.4833L83.3333 27.0166Z" fill="#fff"/>
</g>
<defs>
<clipPath id="clip0_2019_10087">
<rect width="200" height="200" fill="white"/>
</clipPath>
</defs>
</svg>
